<svg
   height="385.00677"
   width="383.55237"
   version="1.1"
   id="Capa_1"
   x="0px"
   y="0px"
   viewBox="0 0 383.55236 385.00676">
  <path d="m 176.30664,72.8125 -1.28516,0.0332 -0.26367,0.0059 -0.26367,0.02539 -1.28125,0.125 -0.2793,0.02734 -0.27539,0.04687 -1.27929,0.220703 -0.28516,0.05078 -0.28125,0.07031 -1.27734,0.324219 -0.28711,0.07227 -0.28125,0.0957 -1.27344,0.431641 -0.23242,0.08008 -0.22461,0.0918 -1.21289,0.501953 -0.16602,0.06836 -0.16211,0.07813 -1.22461,0.576172 -0.14843,0.06836 -0.14454,0.07617 -1.23437,0.648438 -0.13281,0.07031 -0.12891,0.07422 -1.24414,0.71875 -0.11719,0.06836 -0.11523,0.07227 -1.25196,0.783203 -0.10546,0.06641 -0.10352,0.07031 -1.25976,0.84961 -0.13868,0.0918 -0.13476,0.09961 -2.53711,1.880859 -0.1543,0.115235 -0.15039,0.121093 -2.55469,2.105469 -0.12695,0.103516 -0.12109,0.109375 -2.56641,2.308593 -0.10547,0.09375 -0.0996,0.09961 -2.56836,2.490234 -0.0879,0.08398 -0.084,0.08789 -2.5625,2.652344 -0.0742,0.07617 -0.0723,0.07813 -2.54882,2.792968 -0.0625,0.06836 -0.0625,0.07031 -2.5293,2.91211 -0.0527,0.0625 -0.0527,0.06445 -1.29102,1.552734 11.53907,9.585941 1.26562,-1.52539 0.0254,-0.0293 2.35547,-2.71094 2.44531,-2.67773 2.38477,-2.4668 2.375,-2.304687 2.3457,-2.109375 2.29297,-1.886719 2.25391,-1.667969 1.01758,-0.683593 0.99218,-0.623047 1.04297,-0.59961 0.91406,-0.482421 0.93555,-0.439453 0.81641,-0.337891 0.76367,-0.259766 0.70312,-0.177734 0.72657,-0.125 0.72656,-0.07031 0.79101,-0.02148 0.79297,0.03125 0.87891,0.08984 0.32031,0.04883 2.32422,-14.81836 -0.53516,-0.08398 -0.20507,-0.03125 -0.20508,-0.02148 -1.28906,-0.128906 -0.22657,-0.02344 -0.22656,-0.0098 -1.28711,-0.05078 -0.24805,-0.0098 z m 14.29688,19.556641 2.2832,1.041015 0.0156,0.0059 0.0176,0.0078 2.625,1.179688 0.082,0.03711 0.082,0.03516 2.62891,1.107422 0.13867,0.05859 0.14063,0.05273 2.63476,0.986328 0.20313,0.07617 0.20703,0.06445 2.63867,0.816407 0.19727,0.0625 0.20312,0.05078 1.31836,0.330078 0.16016,0.03906 0.16015,0.0332 1.32032,0.269531 0.17968,0.03711 0.18164,0.02734 1.32032,0.203125 0.20117,0.03125 0.20117,0.01953 1.32227,0.13086 0.21679,0.02148 0.21485,0.0078 2.83398,0.115235 0.17188,0.0078 h 0.17187 l 3.10547,-0.01758 h 0.12695 l 0.12891,-0.0059 3.3125,-0.13086 0.0977,-0.0039 0.0996,-0.0059 3.45703,-0.228516 0.0781,-0.0059 0.0801,-0.0059 3.53906,-0.308593 0.0645,-0.0059 0.0625,-0.0059 3.5625,-0.373047 0.0742,-0.0078 0.0742,-0.0078 5.91406,-0.738281 -1.85546,-14.884766 -5.76563,0.720703 -0.0469,0.0039 -3.48438,0.363281 -0.0293,0.0039 -3.3457,0.291016 -3.22266,0.21289 -3.12695,0.123047 -2.80273,0.01563 -2.4336,-0.09766 -0.91796,-0.0918 -0.94336,-0.144531 -0.96875,-0.197266 -0.98829,-0.248047 -2.21484,-0.6875 -2.29102,-0.857421 -2.42968,-1.023438 -2.48242,-1.117188 -0.0332,-0.01562 -2.25,-1.023438 z m 60.44921,-12.113282 2.59375,14.773438 2.22461,-0.390625 -2.59375,-14.773438 z M 126.67188,113.875 l -0.0293,0.0391 -0.0273,0.0391 -2.24023,3.18165 -0.0371,0.0527 -0.0352,0.0527 -4.24609,6.25782 -0.041,0.0605 -0.041,0.0625 -3.88086,5.97071 -0.0352,0.0527 -0.0332,0.0547 -3.45508,5.51758 -0.0293,0.0449 -0.0273,0.0469 -2.96679,4.89258 -0.0254,0.041 -0.0234,0.041 -2.41602,4.09961 -0.0215,0.0371 -0.0195,0.0352 -1.80274,3.13867 -0.0215,0.0371 -0.0215,0.0391 -1.51758,2.71485 13.09375,7.3164 1.51758,-2.71289 1.7168,-2.99023 0.041,-0.0723 2.32617,-3.94726 0.0176,-0.0293 0.0313,-0.0527 2.86132,-4.71875 3.38672,-5.41015 0.0293,-0.0469 0.0391,-0.0605 3.7793,-5.8125 0.0332,-0.0508 4.0918,-6.02735 0.0195,-0.0273 2.16211,-3.07617 0.0117,-0.0156 0.0449,-0.0645 1.53125,-2.11328 -12.1543,-8.79102 z m -79.287114,23.95703 0.576172,0.83399 0.04102,0.0605 0.04102,0.0586 1.605469,2.23437 0.05859,0.0801 0.06055,0.0801 2.451172,3.22851 0.05469,0.0723 0.05664,0.0723 1.486328,1.85938 0.04687,0.0586 0.04883,0.0586 1.626953,1.95703 0.05664,0.0684 0.05859,0.0664 1.746094,2.00196 0.07031,0.0781 0.07031,0.0781 1.84375,1.99609 0.08594,0.0937 0.08984,0.0898 1.669922,1.68946 10.669922,-10.54297 -1.578125,-1.5957 -1.685547,-1.82422 -1.615235,-1.85157 -1.527343,-1.83593 -1.369141,-1.71485 -2.34375,-3.08789 -1.527344,-2.12304 -0.02734,-0.0391 -0.49414,-0.71679 z m 56.126954,8.18555 -1.01172,0.0215 -0.18945,0.004 -0.1875,0.0137 -1.02149,0.0742 -0.23633,0.0156 -0.23437,0.0332 -2.06836,0.27929 -0.238281,0.0332 -0.234375,0.0469 -2.095703,0.42383 -0.15625,0.0312 -0.154297,0.0371 -2.115235,0.52148 -0.08203,0.0195 -0.08203,0.0215 -2.107422,0.57031 -0.02148,0.006 -4.132813,1.10156 -1.720703,0.38672 -1.628906,0.27539 -1.539063,0.14063 -0.535156,0.01 -0.544922,-0.0195 -0.537109,-0.0547 -0.351563,-0.0606 -2.527344,14.78711 0.613282,0.10351 0.253906,0.043 0.257812,0.0273 1.003907,0.10156 0.234375,0.0234 0.236328,0.008 1.013672,0.0391 0.21289,0.008 0.210938,-0.004 1.02539,-0.0195 0.269532,-0.006 0.271484,-0.0254 2.072266,-0.18946 0.283203,-0.0254 0.28125,-0.0469 2.099609,-0.35547 0.197266,-0.0332 0.195312,-0.043 2.119141,-0.47657 0.146484,-0.0332 0.146485,-0.0371 4.263672,-1.13867 0.0098,-0.004 0.01172,-0.002 2.099609,-0.56641 0.0293,-0.008 1.81836,-0.44531 1.681649,-0.33789 1.60156,-0.21875 0.5957,-0.043 0.58594,-0.0117 0.55469,0.0195 0.50586,0.0488 0.41406,0.0703 0.41016,0.10352 0.35742,0.11914 0.41601,0.18164 0.65625,0.33789 0.68946,0.39258 1.625,1.05664 1.60937,1.21094 1.66992,1.42383 1.67578,1.58398 0.84961,0.87695 10.78711,-10.42187 -0.95703,-0.99024 -0.11719,-0.12109 -0.12304,-0.11719 -1.95508,-1.84765 -0.14258,-0.13477 -0.14844,-0.125 -1.97851,-1.6875 -0.17188,-0.14453 -0.17773,-0.13477 -2.00391,-1.50781 -0.20508,-0.15625 -0.21875,-0.14062 -2.01953,-1.31641 -0.18554,-0.11914 -0.18946,-0.10938 -1.01758,-0.57812 -0.13867,-0.0801 -0.14258,-0.0742 -1.02148,-0.52344 -0.2168,-0.11328 -0.22461,-0.0976 -0.93164,-0.4043 -0.28906,-0.125 -0.29883,-0.10156 -0.94726,-0.32032 -0.28711,-0.0977 -0.29297,-0.0723 -0.96094,-0.24023 -0.27539,-0.0703 -0.28125,-0.0469 -0.97461,-0.16797 -0.25976,-0.0449 -0.26172,-0.0254 -0.98828,-0.0977 -0.23633,-0.0254 -0.24024,-0.008 -1,-0.0352 -0.21289,-0.008 z m 20.17578,33.17578 0.59766,0.85352 1.56445,2.3457 0.0293,0.0449 1.53515,2.40234 0.0312,0.0527 1.50781,2.45898 2.89258,4.98438 2.64453,4.85937 2.33204,4.53711 0.0176,0.0352 2.10547,4.30859 0.0215,0.0449 1.74414,3.73633 0.0117,0.0234 1.36523,3.04492 0.004,0.01 0.0371,0.082 1.02929,2.38281 0.84571,2.0332 13.84961,-5.75781 -0.88672,-2.13476 -0.0195,-0.0488 -0.0215,-0.0488 -1.07031,-2.47461 -0.0195,-0.0449 -0.0215,-0.0469 -1.45312,-3.24023 -0.0234,-0.0527 -0.0254,-0.0508 -1.8125,-3.8789 -0.0273,-0.0606 -0.0293,-0.0586 -2.14258,-4.38868 -0.0332,-0.0684 -0.0352,-0.0664 -2.45117,-4.76953 -0.041,-0.0781 -0.041,-0.0781 -2.73242,-5.02344 -0.0508,-0.0918 -0.0527,-0.0898 -2.98633,-5.14648 -0.0449,-0.0781 -0.0488,-0.0762 -1.58008,-2.58008 -0.0371,-0.0586 -0.0352,-0.0566 -1.63672,-2.5625 -0.041,-0.0645 -0.041,-0.0625 -1.6875,-2.52929 -0.0449,-0.0684 -0.0488,-0.0684 -0.65234,-0.93164 z m 123.33594,-23.52734 -0.0859,0.0273 -0.084,0.0312 -2.06641,0.76562 -0.11914,0.043 -0.11524,0.0469 -2.98242,1.2168 -0.10937,0.0449 -0.10742,0.0469 -1.7168,0.76367 -0.0898,0.0391 -0.0879,0.043 -1.80468,0.85937 -0.10547,0.0508 -0.10352,0.0527 -1.84179,0.94921 -0.125,0.0645 -0.1211,0.0684 -1.83398,1.0332 -0.15039,0.084 -0.14453,0.0918 -1.7793,1.11133 -0.17969,0.11133 -0.17383,0.12304 -0.30664,0.2168 8.14649,11.52734 0.46289,0.74219 0.043,-0.0254 0.004,0.006 0.1211,-0.0859 1.4414,-0.90234 1.58789,-0.89453 1.61719,-0.83399 1.63281,-0.77734 1.49024,-0.66211 2.72851,-1.11328 1.88086,-0.69727 0.71289,-0.24414 -4.86132,-14.18945 z m -25.1875,28.42382 0.15429,0.52149 0.0742,0.2539 0.0937,0.2461 0.50391,1.35351 0.0742,0.19532 0.082,0.1914 1.19726,2.72852 0.002,0.008 0.004,0.006 1.125,2.55469 0.35743,0.94531 0.22461,0.73828 0.10156,0.50977 0.0137,0.1914 -0.008,0.0156 -0.16016,0.27929 -0.23828,0.34571 -0.33984,0.43164 -0.43164,0.48828 -0.4336,0.44141 -1.30078,1.16796 -1.45898,1.13868 -1.66016,1.15625 -1.72266,1.08984 -1.77734,1.03906 -1.81641,0.98828 -1.73242,0.88672 -3.02929,1.43555 -2.05665,0.89258 -0.76953,0.31445 5.65821,13.89258 0.84765,-0.3457 0.0801,-0.0332 0.0801,-0.0351 2.26562,-0.98438 0.11133,-0.0488 0.11133,-0.0527 3.26562,-1.54688 0.10352,-0.0488 0.10156,-0.0527 1.87891,-0.96094 0.084,-0.043 0.084,-0.0469 1.97265,-1.07227 0.0977,-0.0547 0.0977,-0.0566 2.01367,-1.17578 0.11719,-0.0684 0.11523,-0.0723 2.00391,-1.26953 0.13867,-0.0879 0.13476,-0.0937 1.94141,-1.35156 0.16797,-0.11719 0.16016,-0.125 1.82617,-1.42774 0.20312,-0.1582 0.19336,-0.17187 1.66016,-1.49024 0.17773,-0.16015 0.16797,-0.16993 0.75,-0.76757 0.13281,-0.13477 0.125,-0.14062 0.69141,-0.7793 0.14258,-0.16211 0.13476,-0.16992 0.62305,-0.79102 0.1543,-0.19531 0.14062,-0.20703 0.54883,-0.80078 0.16211,-0.23633 0.14453,-0.25 0.4668,-0.8086 0.16601,-0.2871 0.14063,-0.29883 0.38086,-0.81836 0.15625,-0.33789 0.12304,-0.35157 0.22071,-0.62695 0.12305,-0.35547 0.0879,-0.36523 0.15429,-0.63477 0.084,-0.35156 0.0508,-0.35742 0.0898,-0.64063 0.0469,-0.33398 0.0176,-0.33594 0.0313,-0.64844 0.0234,-0.44531 -0.0312,-0.44531 -0.0898,-1.3125 -0.0332,-0.48633 -0.0957,-0.47851 -0.26758,-1.33008 -0.0723,-0.35742 -0.10547,-0.34571 -0.4082,-1.34765 -0.0742,-0.24219 -0.0899,-0.23633 -0.51562,-1.35742 -0.0684,-0.1836 -0.0801,-0.17968 -1.19726,-2.71875 -0.006,-0.0137 -1.10938,-2.53321 -0.33398,-0.89062 -0.082,-0.2793 z m -37.99024,20.00977 -0.0508,0.0664 -0.0508,0.0684 -1.73437,2.36718 -0.0684,0.0937 -0.0664,0.0957 -2.43555,3.54882 -0.0625,0.0879 -0.0586,0.0918 -1.36328,2.11524 -0.0488,0.0762 -0.0469,0.0762 -1.4004,2.28906 -0.0547,0.0899 -0.0527,0.0918 -1.38867,2.42188 -0.0625,0.10937 -0.0586,0.11328 -1.33008,2.51172 -0.0723,0.13672 -0.0664,0.13867 -1.22461,2.56446 -0.082,0.17187 -0.0742,0.17578 -1.07227,2.57422 -0.0918,0.2207 -0.0781,0.22657 -0.87695,2.54492 -0.0703,0.20898 -0.0605,0.21289 -0.34766,1.24805 -0.0469,0.16797 -0.0391,0.16992 -0.2832,1.22461 -0.0449,0.19531 -0.0332,0.19727 -0.20899,1.19726 -0.0391,0.22657 -0.0273,0.22851 -0.12891,1.16602 -0.0293,0.26367 -0.0117,0.26562 -0.0449,1.12696 -0.0137,0.30664 0.0137,0.30664 0.043,1.08398 0.0137,0.31446 0.0391,0.31445 0.13672,1.08203 0.0371,0.28906 0.0586,0.28321 0.21484,1.05078 0.0566,0.27539 0.0762,0.26953 0.29102,1.02148 0.0723,0.25586 0.0918,0.25 0.35938,0.99414 0.0859,0.23438 0.0996,0.22656 0.42578,0.97071 0.0918,0.20898 0.10547,0.20312 0.48633,0.94727 0.0957,0.18359 0.10547,0.17969 0.54297,0.92578 0.0937,0.16016 0.10156,0.15625 0.59375,0.90625 0.13086,0.19922 0.14258,0.1914 1.07812,1.4336 11.9961,-9.00391 -0.92969,-1.24023 -0.35742,-0.54297 -0.34766,-0.59375 -0.28516,-0.55078 -0.24414,-0.55664 -0.17773,-0.49024 -0.14258,-0.50195 -0.10351,-0.50586 -0.0605,-0.47266 -0.0176,-0.46289 0.0215,-0.56054 0.0781,-0.6875 0.12891,-0.73438 0.20117,-0.87891 0.24414,-0.86914 0.72461,-2.11132 0.90234,-2.16211 1.09375,-2.29297 1.20508,-2.27344 1.25391,-2.18555 1.29883,-2.12695 1.27929,-1.98242 2.3125,-3.36328 1.63086,-2.22461 0.0117,-0.0156 0.56055,-0.72851 -11.89844,-9.13477 z m 1.10742,59.73633 0.94141,1.03906 1.13672,1.40039 0.97852,1.41211 0.3125,0.52539 0.33203,0.63281 0.26172,0.57422 0.24218,0.63867 0.24414,0.77149 0.25196,0.93554 0.48828,2.32618 0.38476,2.51562 0.30469,2.81446 0.21875,2.96874 0.13672,2.99805 0.0703,3.0293 0.0117,2.97461 -0.10742,5.52148 -0.19922,4.54492 14.98633,0.65625 0.20312,-4.63867 0.004,-0.0918 v -0.0899 l 0.11133,-5.72461 0.002,-0.0879 v -0.0859 l -0.0117,-3.10546 v -0.0723 l -0.002,-0.0723 -0.0742,-3.18945 -0.002,-0.0859 -0.004,-0.0859 -0.14648,-3.21289 -0.006,-0.10352 -0.008,-0.10352 -0.23437,-3.17773 -0.01,-0.12891 -0.0137,-0.1289 -0.33398,-3.08008 -0.0176,-0.16211 -0.0234,-0.16211 -0.44726,-2.92578 -0.0312,-0.20899 -0.0449,-0.20703 -0.57032,-2.71289 -0.043,-0.19726 -0.0527,-0.19532 -0.33594,-1.25781 -0.043,-0.16015 -0.0488,-0.15625 -0.37304,-1.18164 -0.0645,-0.20704 -0.0781,-0.20117 -0.39062,-1.02929 -0.084,-0.22071 -0.0957,-0.21289 -0.45508,-1.00195 -0.0898,-0.19727 -0.10157,-0.19336 -0.51172,-0.97461 -0.0937,-0.17578 -0.0996,-0.17187 -0.5664,-0.95117 -0.13281,-0.22266 -0.14844,-0.21289 -1.27344,-1.83984 -0.16015,-0.23243 -0.17774,-0.21679 -1.43164,-1.76953 -0.13086,-0.16211 -0.14062,-0.15235 -1.09766,-1.21289 z m -12.09374,-64.69336 -2.78516,0.12304 -0.20117,0.008 -0.19922,0.0195 -2.75977,0.26953 -0.21094,0.0215 -0.20703,0.0312 -2.72656,0.42383 -0.21875,0.0332 -0.2168,0.0469 -0.98828,0.21289 3.16602,14.66211 0.77539,-0.16602 2.29492,-0.35546 2.37109,-0.23243 2.36133,-0.10351 2.44532,0.0156 2.47656,0.14063 2.45508,0.25391 2.44531,0.36328 2.49023,0.48242 2.45117,0.58594 2.375,0.67382 2.38282,0.78125 2.33789,0.87696 2.24414,0.94531 2.17578,1.02539 0.98242,0.5293 0.89649,0.55859 0.8789,0.625 0.0156,0.0117 0.15039,0.10547 1.92969,-2.72461 7.25,-9.12695 -0.17969,-0.14258 -0.16211,-0.12696 -0.16797,-0.12109 -1.23438,-0.87305 -0.17968,-0.1289 -0.18946,-0.11719 -1.2871,-0.80078 -0.19922,-0.125 -0.20704,-0.11133 -1.34374,-0.72461 -0.17579,-0.0957 -0.18164,-0.084 -2.48242,-1.17187 -0.14062,-0.0664 -0.14258,-0.0605 -2.55274,-1.07813 -0.14257,-0.0586 -0.14454,-0.0547 -2.61718,-0.98047 -0.14453,-0.0547 -0.14454,-0.0469 -2.67187,-0.87695 -0.14648,-0.0488 -0.1504,-0.043 -2.71679,-0.76953 -0.15039,-0.043 -0.15235,-0.0352 -2.7539,-0.6582 -0.15625,-0.0371 -0.15625,-0.0293 -2.78125,-0.54101 -0.16211,-0.0312 -0.16211,-0.0234 -2.79883,-0.41602 -0.16797,-0.0254 -0.16797,-0.0176 -2.81054,-0.28906 -0.17383,-0.0176 -0.17578,-0.01 -2.81055,-0.1582 -0.18359,-0.01 -0.1836,-0.002 -2.80273,-0.0195 h -0.19141 z m -28.53321,9.57812 -0.14062,0.10547 -0.13477,0.11328 -1.58984,1.33399 -0.1211,0.10156 -0.11523,0.10547 -1.54492,1.41015 -0.10352,0.0918 -0.0976,0.0977 -1.50586,1.47851 -0.0859,0.084 -0.082,0.0859 -1.47071,1.53906 -0.0703,0.0742 -0.0684,0.0742 -1.4414,1.59375 -0.0566,0.0605 -0.0547,0.0645 -1.41602,1.63671 -0.0605,0.0703 -0.0586,0.0723 -2.77734,3.37305 -0.0449,0.0547 -0.0449,0.0566 -2.73242,3.45312 -0.008,0.008 -0.006,0.008 -2.66602,3.39062 -0.0371,0.0469 -0.0254,0.0312 -2.61718,3.23437 -2.68164,3.12305 -1.32227,1.43555 -1.30273,1.34179 -1.35157,1.29883 -1.45703,1.30078 4.11914,4.61914 5.57618,6.82032 0.043,-0.0352 0.125,-0.10352 0.1211,-0.10742 1.5664,-1.39648 0.10743,-0.0957 0.10156,-0.0976 1.52539,-1.46875 0.0898,-0.0859 0.0859,-0.0898 1.48828,-1.5293 0.0742,-0.0762 0.0723,-0.0781 1.45507,-1.58398 0.0859,-0.0918 0.0801,-0.0957 2.83398,-3.29688 0.0742,-0.084 0.0703,-0.0879 2.76171,-3.41602 0.0312,-0.0371 0.0312,-0.041 2.71485,-3.45117 0.002,0.002 2.6875,-3.39844 2.68359,-3.25781 1.23438,-1.42969 0.0352,-0.0371 1.34765,-1.49218 1.31446,-1.375 1.30859,-1.28516 1.33203,-1.2168 1.33008,-1.11328 1.29492,-0.98633 -9.08594,-11.93554 z m 66.43945,22.85157 1.01563,1.47265 0.002,0.004 1.78516,2.66601 0.002,0.004 0.004,0.004 1.78711,2.66601 0.0351,0.0508 0.0352,0.0508 1.82031,2.6211 0.0684,0.0996 0.0723,0.0957 1.88476,2.5332 0.10938,0.14844 0.11523,0.14063 1.97852,2.40429 0.11328,0.13868 0.12109,0.13281 1.03321,1.14062 0.0957,0.10547 0.0996,0.10156 1.06836,1.09375 0.11133,0.11329 0.11718,0.11132 1.10743,1.03907 0.1289,0.12109 0.13477,0.11523 1.15039,0.98243 0.14844,0.12695 0.15429,0.11914 1.19532,0.91601 0.16796,0.13086 0.17579,0.11914 1.24609,0.84766 0.1875,0.12891 0.19531,0.11523 1.30078,0.77539 0.20508,0.12305 0.21484,0.10937 1.35743,0.69532 0.21289,0.10937 0.21875,0.0957 1.625,0.70508 0.20508,0.0898 0.21093,0.0762 1.65039,0.60156 0.19922,0.0742 0.20508,0.0605 1.67383,0.50586 0.1914,0.0586 0.19336,0.0469 1.69532,0.41601 0.17968,0.043 0.18164,0.0352 1.7168,0.33203 0.16797,0.0312 0.16797,0.0254 1.73633,0.2539 0.15234,0.0234 0.15235,0.0156 1.7539,0.18359 0.13867,0.0156 0.13672,0.008 1.76953,0.12109 0.12305,0.008 0.12305,0.004 1,0.0352 0.52539,-14.99024 -0.85352,-0.0293 -1.52734,-0.10351 -1.48242,-0.1543 -1.40039,-0.20703 -1.39063,-0.26953 -1.31055,-0.32031 -1.28711,-0.38867 -1.21484,-0.44336 -1.22656,-0.53321 -0.90821,-0.46484 -0.91015,-0.54297 -0.875,-0.5957 -0.88672,-0.67969 -0.87891,-0.75195 -0.82226,-0.77344 -0.86719,-0.88672 -0.84375,-0.93164 -1.70703,-2.07617 -1.74023,-2.33985 -1.72657,-2.48437 -0.008,-0.0117 -1.71484,-2.55859 -0.004,-0.006 -1.7832,-2.66407 -0.0293,-0.043 -0.0293,-0.0449 -1.07812,-1.56054 z m 68.69336,11.8789 -3.63867,0.0645 -0.14062,0.002 -0.14063,0.008 -3.66797,0.20313 -0.10156,0.006 -0.10156,0.008 -5.95313,0.49023 1.22852,14.94922 5.86328,-0.48242 3.42969,-0.1875 3.34179,-0.0606 1.55274,0.0312 1.5625,0.0781 1.49414,0.12695 1.45898,0.17773 1.41016,0.23633 1.38477,0.29688 1.34765,0.35937 1.32032,0.43164 0.89257,0.34571 0.95703,0.41796 2.30469,1.15626 2.42969,1.39453 2.55078,1.60937 2.69531,1.83203 1.35352,0.97461 8.76758,-12.16992 -1.47461,-1.0625 -0.084,-0.0606 -0.084,-0.0586 -2.83008,-1.92188 -0.10547,-0.0723 -0.10742,-0.0664 -2.81641,-1.77734 -0.13476,-0.0859 -0.14063,-0.0801 -2.75976,-1.58203 -0.17969,-0.10351 -0.18555,-0.0918 -2.66406,-1.33594 -0.17773,-0.0898 -0.18164,-0.0781 -1.28321,-0.56054 -0.14844,-0.0645 -0.15039,-0.0586 -1.24218,-0.47852 -0.1836,-0.0723 -0.1875,-0.0606 -1.6875,-0.55273 -0.19336,-0.0625 -0.19531,-0.0527 -1.70898,-0.45703 -0.18164,-0.0488 -0.18555,-0.041 -1.72852,-0.3711 -0.17187,-0.0371 -0.17188,-0.0273 -1.74804,-0.29297 -0.15625,-0.0254 -0.15821,-0.0195 -1.76367,-0.2168 -0.14258,-0.0176 -0.14453,-0.0137 -1.77929,-0.15039 -0.12891,-0.01 -0.12695,-0.006 -1.79297,-0.0898 -0.11328,-0.006 -0.11524,-0.002 -1.80469,-0.0371 -0.14062,-0.002 z m -218.412105,17.07031 1.425781,0.23047 0.0625,0.01 0.06445,0.008 3.884766,0.55664 0.08594,0.0117 0.08789,0.0117 5.751953,0.68555 0.08203,0.01 0.08008,0.008 3.392578,0.33008 0.06641,0.008 0.06641,0.004 3.638672,0.29102 0.07813,0.006 0.07813,0.004 3.810547,0.22461 0.0918,0.006 0.0918,0.004 3.912109,0.13476 0.109375,0.004 h 0.109375 l 3.9375,0.0195 0.132813,0.002 0.132812,-0.004 3.888672,-0.11914 0.166016,-0.004 0.166015,-0.0137 3.765621,-0.28125 0.15039,-0.0117 0.15235,-0.0176 1.8125,-0.20898 0.11914,-0.0137 0.11718,-0.0176 1.75586,-0.25977 0.13477,-0.0215 0.13476,-0.0234 1.68946,-0.31445 0.15429,-0.0273 0.15235,-0.0352 1.61133,-0.36914 0.17773,-0.041 0.17578,-0.0488 0.45117,-0.12695 -4.05468,-14.44141 -0.27344,0.0762 -1.26367,0.29102 -1.41992,0.26172 -1.5586,0.23047 -1.476558,0.16992 -3.460938,0.26172 -3.626953,0.10937 -3.640625,-0.0215 -3.777344,-0.12891 -0.03906,-0.002 -3.474609,-0.20508 -0.02734,-0.002 -3.544922,-0.28125 -3.259766,-0.31836 -5.490234,-0.6543 -0.0332,-0.004 -3.798828,-0.54297 -0.05273,-0.008 -1.298828,-0.21094 z m 254.501955,16.27344 3.33203,2.87891 0.0352,0.0312 3.4082,3.07812 10.05664,-11.1289 -3.44336,-3.11133 -0.0605,-0.0547 -0.0625,-0.0547 -3.45703,-2.98828 z M 78.960938,0.03320312 C 70.044972,0.30959068 61.435883,2.4824656 54.976562,8.578125 c -6.45932,6.095659 -8.600264,14.542013 -8.882812,21.300781 -0.282548,6.758768 0.754013,12.904504 1.861328,19.105469 2.21463,12.40193 4.888614,25.008605 3.988281,35.859375 -0.900333,10.85077 -4.011018,19.64171 -16.251953,29.01367 -16.870408,12.91641 -27.4999032,25.89456 -32.4843748,39.91211 -4.9844715,14.01756 -3.52897352,27.9815 0.087891,39.9668 7.2337278,23.97059 20.8686478,43.47848 23.6933588,66.07617 2.846691,22.77352 -4.596809,38.11061 -10.589843,55.17773 -2.996518,8.53357 -5.993036,17.94692 -4.253907,28.95313 1.73913,11.00621 9.012914,21.3651 19.970703,29.36133 10.762789,7.85392 22.459293,12.05264 33.867188,11.67969 11.407895,-0.37296 21.302529,-4.5157 31.384766,-9.49219 20.164472,-9.95298 42.865662,-24.58134 82.085932,-36.57813 18.8145,-5.75502 30.19837,-5.662 37.30079,-3.89648 7.10241,1.76551 11.04979,5.02185 15.90625,10.23242 4.85645,5.21057 9.68782,12.64111 18.53515,19.16602 8.84734,6.5249 22.60014,9.98931 37.1836,6.57617 17.24091,-4.03511 31.66964,-16.45413 45.70507,-32.3086 14.03544,-15.85446 26.93541,-35.70263 36.16602,-56.69726 9.23061,-20.99464 15.01882,-43.12262 12.84375,-64.3125 -2.17507,-21.18988 -14.56846,-41.79584 -37.14844,-51.67578 -20.25306,-8.8618 -39.04737,-11.11436 -54.08984,-11.60157 -14.58824,-0.47249 -25.98928,-1.8e-4 -29.90039,-0.64843 -0.0459,-0.55783 -0.12494,-0.84131 -0.0684,-1.98828 0.37614,-7.62542 5.08841,-25.90027 16.01172,-55.345708 11.5855,-31.230478 15.86092,-52.35007 7.53125,-70.25 C 281.26485,17.214098 273.21851,10.694989 264.91797,7.4882812 256.61743,4.2815736 248.01263,3.4721945 238.94727,3.3710938 202.68581,2.9666909 155.13038,14.181105 110.90234,4.109375 98.01156,1.1738497 87.876903,-0.24318443 78.960938,0.03320312 Z M 79.896484,30.255859 c 4.690092,-0.145389 12.841227,0.728115 24.292966,3.335938 53.14208,12.101661 105.85026,-0.304971 134.42188,0.01367 7.1429,0.07966 12.52985,0.975155 15.41015,2.08789 2.88031,1.112736 3.20311,1.528624 3.99414,3.228516 1.58208,3.399783 2.12305,18.433335 -8.46484,46.974609 -11.25009,30.326318 -17.10916,49.084958 -17.86328,64.373048 -0.37706,7.64405 0.6709,15.35999 5.32617,21.92188 4.65528,6.56188 12.00191,9.84002 18.0293,11.11328 12.05477,2.54651 22.91538,0.89408 35.83398,1.3125 12.9186,0.41841 27.19109,2.18786 42.94727,9.08203 13.43195,5.87719 17.83781,13.87557 19.1914,27.0625 1.3536,13.18693 -2.59893,31.20842 -10.44531,49.05469 -7.84638,17.84626 -19.35737,35.53122 -31.12695,48.82617 -11.76958,13.29494 -24.54057,21.64098 -29.95508,22.9082 -8.07197,1.88919 -9.14228,0.89378 -12.3457,-1.46875 -3.20343,-2.36252 -7.65101,-8.24555 -14.36328,-15.44726 -6.71228,-7.20171 -16.62356,-15.45425 -30.73047,-18.96094 -14.10692,-3.50669 -31.28334,-2.45159 -53.44141,4.32617 -42.72487,13.06878 -69.18916,29.77372 -86.623045,38.37891 -8.716944,4.30259 -14.730193,6.24555 -18.988281,6.38476 -4.258089,0.13921 -7.986264,-0.72387 -15.058594,-5.88476 -6.877328,-5.01859 -7.557983,-7.3143 -7.927734,-9.6543 -0.369752,-2.34 0.369184,-6.96386 2.916015,-14.2168 5.093663,-14.50586 15.968139,-37.73145 12.066407,-68.94531 -3.923713,-31.3897 -19.691957,-54.30153 -24.75,-71.0625 -2.529022,-8.38048 -2.943492,-14.35974 -0.546876,-21.09961 2.396617,-6.73987 8.397425,-15.33208 22.376954,-26.03516 18.609,-14.24751 26.584469,-33.4145 28.003906,-50.521482 C 83.495609,70.236766 79.723838,54.885521 77.720703,43.667969 76.719136,38.059193 76.20493,33.480178 76.302734,31.140625 c 0.01504,-0.359681 0.005,-0.233472 0.01953,-0.449219 0.655627,-0.15975 1.558579,-0.373063 3.574218,-0.435547 z" />
</svg>
