<?xml version="1.0" encoding="UTF-8" standalone="no"?>
<svg
   id="svg8"
   version="1.1"
   viewBox="0 0 321.73288 115.3904"
   height="115.3904mm"
   width="321.73288mm">
  <defs
     id="defs2" />
  <g
     transform="translate(-5.9638138,-162.71968)"
     id="layer1">
    <circle
       r="20"
       cy="228.97366"
       cx="55.816998"
       id="path815"
       style="opacity:1;fill:none;fill-opacity:1;stroke:#54f59a;stroke-width:5;stroke-miterlimit:4;stroke-dasharray:none;stroke-opacity:1;paint-order:normal" />
    <circle
       r="5"
       cy="228.97366"
       cx="55.816998"
       id="path817"
       style="opacity:1;fill:none;fill-opacity:1;stroke:#96f7c0;stroke-width:10;stroke-miterlimit:4;stroke-dasharray:none;stroke-opacity:1;paint-order:normal" />
    <rect
       width="4.9999995"
       y="200.61009"
       x="43.463814"
       height="9.999999"
       id="rect819"
       style="opacity:1;fill:#54f59a;fill-opacity:1;stroke:#00eb64;stroke-width:0;stroke-miterlimit:4;stroke-dasharray:none;stroke-opacity:1;paint-order:normal" />
    <path
       transform="scale(1,-1)"
       d="m 65.963814,-200.61009 a 10,10 0 0 1 -5,8.66025 10,10 0 0 1 -10,0 10,10 0 0 1 -5,-8.66025"
       id="path821"
       style="opacity:1;fill:none;fill-opacity:1;stroke:#54f59a;stroke-width:5;stroke-miterlimit:4;stroke-dasharray:none;stroke-opacity:1;paint-order:normal" />
    <path
       d="M 103.25386,247.64247 56.029051,274.98306 8.7390098,247.75547 8.6737721,193.1873 55.898576,165.84671 103.18862,193.0743 Z"
       id="path829"
       style="opacity:1;fill:none;fill-opacity:1;stroke:#96f7c0;stroke-width:5.41618204;stroke-miterlimit:4;stroke-dasharray:none;stroke-opacity:1;paint-order:normal" />
    <circle
       r="2"
       cy="221.97409"
       cx="55.816814"
       id="path905"
       style="opacity:1;fill:#54f59a;fill-opacity:1;stroke:none;stroke-width:5;stroke-miterlimit:4;stroke-dasharray:none;stroke-opacity:1;paint-order:normal" />
    <circle
       r="2"
       cy="235.97409"
       cx="55.816814"
       id="path905-0"
       style="opacity:1;fill:#54f59a;fill-opacity:1;stroke:none;stroke-width:5;stroke-miterlimit:4;stroke-dasharray:none;stroke-opacity:1;paint-order:normal" />
    <circle
       r="2"
       cy="225.47409"
       cx="61.610813"
       id="path905-0-1"
       style="opacity:1;fill:#54f59a;fill-opacity:1;stroke:none;stroke-width:5;stroke-miterlimit:4;stroke-dasharray:none;stroke-opacity:1;paint-order:normal" />
    <circle
       r="2"
       cy="232.47409"
       cx="61.610813"
       id="path905-0-1-6"
       style="opacity:1;fill:#54f59a;fill-opacity:1;stroke:none;stroke-width:5;stroke-miterlimit:4;stroke-dasharray:none;stroke-opacity:1;paint-order:normal" />
    <circle
       r="2"
       cy="232.47409"
       cx="50.022812"
       id="path905-0-1-1"
       style="opacity:1;fill:#54f59a;fill-opacity:1;stroke:none;stroke-width:5;stroke-miterlimit:4;stroke-dasharray:none;stroke-opacity:1;paint-order:normal" />
    <circle
       r="2"
       cy="225.47409"
       cx="50.022812"
       id="path905-0-1-8"
       style="opacity:1;fill:#54f59a;fill-opacity:1;stroke:none;stroke-width:5;stroke-miterlimit:4;stroke-dasharray:none;stroke-opacity:1;paint-order:normal" />
    <rect
       width="4.9999995"
       y="200.61009"
       x="63.463814"
       height="9.999999"
       id="rect819-7"
       style="opacity:1;fill:#54f59a;fill-opacity:1;stroke:#00eb64;stroke-width:0;stroke-miterlimit:4;stroke-dasharray:none;stroke-opacity:1;paint-order:normal" />
    <g
       id="flowRoot833"
       style="font-style:normal;font-variant:normal;font-weight:600;font-stretch:normal;font-size:192px;line-height:1.25;font-family:'Saira SemiBold';-inkscape-font-specification:'Saira SemiBold, Semi-Bold';font-variant-ligatures:normal;font-variant-caps:normal;font-variant-numeric:normal;font-feature-settings:normal;text-align:start;letter-spacing:0px;word-spacing:0px;writing-mode:lr-tb;text-anchor:start;fill:#54f59a;fill-opacity:1;stroke:none"
       transform="matrix(0.26458333,0,0,0.26458333,-1.2554443,166.49847)"
       aria-label="Safe">
      <path
         id="path885"
         style=""
         d="m 495.25742,280.1069 q -28.224,0 -48.384,-3.072 v -22.848 q 23.616,2.304 40.32,2.304 9.792,0 15.168,-0.768 5.568,-0.96 8.256,-3.072 2.496,-1.92 3.072,-4.608 0.768,-2.688 0.768,-7.68 0,-5.568 -0.768,-8.064 -0.768,-2.688 -3.072,-3.84 -2.304,-1.344 -7.68,-1.92 l -28.224,-3.264 q -12.672,-1.728 -19.584,-6.528 -6.912,-4.992 -9.6,-12.672 -2.496,-7.872 -2.496,-19.392 0,-16.896 6.144,-25.536 6.144,-8.832 16.512,-11.52 10.368,-2.688 26.688,-2.688 25.152,0 43.008,3.84 v 22.272 q -18.624,-2.496 -37.44,-2.496 -17.28,0 -22.848,2.88 -3.072,1.536 -3.84,4.032 -0.768,2.496 -0.768,7.488 0,5.76 0.768,8.256 0.768,2.496 3.264,3.648 2.688,0.96 8.832,1.728 l 30.336,3.648 q 8.832,0.96 14.592,3.648 5.76,2.496 9.024,8.448 4.608,8.256 4.608,25.536 0,18.24 -5.76,27.456 -5.76,9.216 -15.552,12.096 -9.6,2.688 -25.344,2.688 z" />
      <path
         id="path887"
         style=""
         d="m 589.73942,280.1069 q -14.784,0 -22.08,-6.72 -7.104,-6.72 -7.104,-22.272 0,-11.52 2.688,-18.048 2.688,-6.528 9.216,-9.408 6.72,-3.072 18.816,-3.072 9.984,0 29.952,0.768 v -3.648 q 0,-8.64 -1.92,-12.096 -1.728,-3.456 -6.72,-4.416 -4.992,-0.96 -17.28,-0.96 -5.952,0 -14.784,0.576 -8.832,0.576 -14.016,1.152 v -19.776 q 17.856,-3.072 37.248,-3.072 18.816,0 28.032,4.224 9.216,4.032 12.096,12.288 2.88,8.064 2.88,23.232 v 59.712 h -24 l -0.768,-11.904 h -1.344 q -4.416,8.064 -12.48,10.752 -8.064,2.688 -18.432,2.688 z m 12.096,-20.16 q 6.336,0 10.176,-1.344 4.032,-1.536 6.336,-4.8 2.88,-4.608 2.88,-14.4 v -3.072 h -23.04 q -5.76,0 -8.448,0.96 -2.688,0.768 -3.648,3.264 -0.96,2.496 -0.96,7.872 0,5.184 1.152,7.488 1.344,2.304 4.608,3.264 3.456,0.768 10.944,0.768 z" />
      <path
         id="path889"
         style=""
         d="m 683.52242,201.7709 h -18.816 v -21.12 h 18.816 v -8.448 q 0,-17.472 4.032,-24.768 4.032,-7.488 13.632,-9.408 9.6,-1.92 32.064,-1.92 v 19.2 q -11.52,0 -16.32,0.768 -4.608,0.768 -6.336,3.264 -1.536,2.496 -1.536,8.64 v 12.672 h 24.192 v 21.12 h -24.192 v 76.8 h -25.536 z" />
      <path
         id="path891"
         style=""
         d="m 833.55842,237.2909 h -61.056 q 0,10.368 1.536,14.592 1.536,4.224 6.912,5.76 5.376,1.344 19.008,1.344 11.328,0 29.76,-1.536 v 19.584 q -6.144,1.344 -16.128,2.112 -9.984,0.96 -19.584,0.96 -21.312,0 -31.296,-4.8 -9.984,-4.8 -12.864,-14.976 -2.88,-10.176 -2.88,-30.528 0,-19.776 2.88,-29.952 3.072,-10.368 12.48,-15.552 9.6,-5.184 29.568,-5.184 19.584,0 28.416,5.184 8.832,4.992 10.944,14.976 2.304,9.792 2.304,30.528 z m -42.048,-37.824 q -8.64,0 -12.48,1.728 -3.84,1.536 -5.184,5.952 -1.152,4.416 -1.344,14.4 h 36.864 q 0,-9.984 -1.536,-14.592 -1.536,-4.608 -5.184,-5.952 -3.648,-1.536 -11.136,-1.536 z" />
    </g>
    <g
       id="flowRoot833-6"
       style="font-style:normal;font-variant:normal;font-weight:600;font-stretch:normal;font-size:192px;line-height:1.25;font-family:'Saira ExtraLight';-inkscape-font-specification:'Saira ExtraLight,  weight=280';font-variant-ligatures:normal;font-variant-caps:normal;font-variant-numeric:normal;font-feature-settings:normal;text-align:start;letter-spacing:0px;word-spacing:0px;writing-mode:lr-tb;text-anchor:start;fill:#96f7c0;fill-opacity:1;stroke:none"
       transform="matrix(0.26458333,0,0,0.26458333,106.24456,166.49847)"
       aria-label="Spot">
      <path
         id="path876"
         style=""
         d="m 496.60142,280.1069 q -10.56,0 -23.232,-0.768 -12.672,-0.576 -21.888,-1.536 v -8.64 q 9.792,0.96 22.08,1.728 12.288,0.768 20.352,0.768 10.56,0 16.896,-0.96 6.528,-0.96 11.712,-3.648 4.8,-2.688 6.336,-8.64 1.728,-5.952 1.728,-15.36 0,-12.096 -1.152,-16.704 -1.152,-4.608 -5.76,-6.528 -4.416,-2.112 -16.128,-3.264 l -34.56,-3.648 q -11.712,-1.152 -17.28,-5.184 -5.376,-4.032 -6.72,-10.176 -1.344,-6.144 -1.344,-17.28 0,-14.784 4.8,-22.272 4.992,-7.68 14.592,-10.368 9.792,-2.688 26.688,-2.688 11.328,0 22.272,0.768 10.944,0.576 17.088,1.92 v 8.256 q -7.68,-1.152 -18.432,-1.728 -10.752,-0.768 -19.776,-0.768 -11.904,0 -19.2,1.344 -7.296,1.152 -11.52,4.224 -4.416,2.688 -5.952,7.872 -1.344,4.992 -1.344,13.632 0,9.408 1.152,14.016 1.344,4.416 4.992,6.528 3.84,1.92 12.096,2.88 l 33.024,3.456 q 9.792,0.96 15.168,2.304 5.376,1.152 9.024,4.032 3.84,2.688 5.568,8.256 1.152,3.456 1.344,7.872 0.384,4.224 0.384,12.288 0,17.28 -5.184,25.536 -4.992,8.064 -13.632,10.368 -8.64,2.112 -24.192,2.112 z" />
      <path
         id="path878"
         style=""
         d="m 572.98142,180.6509 h 7.296 l 0.576,15.36 h 0.96 q 3.648,-10.176 12.48,-13.44 8.832,-3.456 22.272,-3.456 16.128,0 24,4.224 7.872,4.032 10.752,14.592 3.072,10.56 3.072,31.68 0,21.12 -3.072,31.68 -2.88,10.56 -10.752,14.784 -7.872,4.032 -24,4.032 -14.016,0 -22.272,-3.456 -8.256,-3.648 -11.712,-11.904 h -0.768 v 52.224 h -8.832 z m 40.512,91.2 q 14.784,0 21.12,-2.88 6.528,-2.88 8.64,-11.328 2.304,-8.64 2.304,-28.032 0,-19.392 -2.304,-27.84 -2.112,-8.64 -8.64,-11.52 -6.336,-3.072 -21.12,-3.072 -12.288,0 -19.392,3.648 -7.104,3.456 -9.6,11.136 -1.728,4.992 -2.304,10.944 -0.384,5.952 -0.384,16.704 0,10.176 0.384,16.128 0.384,5.952 1.728,9.984 3.072,8.832 9.984,12.48 7.104,3.648 19.584,3.648 z" />
      <path
         id="path880"
         style=""
         d="m 723.84542,280.1069 q -19.968,0 -28.416,-3.84 -8.448,-4.032 -10.944,-13.824 -2.304,-9.792 -2.304,-32.64 0,-22.848 2.304,-32.64 2.496,-9.984 10.944,-14.016 8.64,-4.032 28.416,-4.032 19.968,0 28.416,4.032 8.448,4.032 10.752,13.824 2.496,9.792 2.496,32.832 0,22.848 -2.496,32.64 -2.304,9.792 -10.752,13.824 -8.448,3.84 -28.416,3.84 z m 0,-8.064 q 16.704,0 23.232,-2.88 6.528,-3.072 8.064,-10.752 1.536,-7.872 1.536,-28.608 0,-20.736 -1.536,-28.608 -1.536,-7.872 -8.064,-10.944 -6.528,-3.072 -23.232,-3.072 -16.704,0 -23.232,3.072 -6.528,3.072 -8.064,10.944 -1.536,7.872 -1.536,28.608 0,20.736 1.536,28.608 1.536,7.68 8.064,10.752 6.528,2.88 23.232,2.88 z" />
      <path
         id="path882"
         style=""
         d="m 804.34442,278.5709 v -89.856 h -20.544 v -8.064 h 20.544 v -28.416 h 8.832 v 28.416 h 23.808 v 8.064 h -23.808 v 89.856 z" />
    </g>
  </g>
</svg>
